<?xml version="1.0" encoding="utf-8"?>
<!-- Generator: Adobe Illustrator 27.2.0, SVG Export Plug-In . SVG Version: 6.00 Build 0)  -->
<svg version="1.1" id="Layer_1" xmlns="http://www.w3.org/2000/svg" xmlns:xlink="http://www.w3.org/1999/xlink" x="0px" y="0px"
	 viewBox="0 0 208 35" style="enable-background:new 0 0 208 35;" xml:space="preserve">
<style type="text/css">
	.st0{fill:#F26722;}
	.st1{font-family:'Cambria-Bold';}
	.st2{font-size:19.2739px;}
	.st3{fill:#231F20;}
	.st4{fill-rule:evenodd;clip-rule:evenodd;fill:#F26722;}
	.st5{fill-rule:evenodd;clip-rule:evenodd;fill:#231F20;}
</style>
<text transform="matrix(1 0 0 1 41.519 25.6895)"><tspan x="0" y="0" class="st0 st1 st2">SUNRISE</tspan><tspan x="76.5" y="0" class="st3 st1 st2"> RENTALS</tspan></text>
<path class="st4" d="M33.3,27.6h1.4l-0.9,2h-1.3L33.3,27.6z M30.2,27.6h2.1l-0.8,2h-2.1L30.2,27.6z M25.9,27.6h2.9l-0.8,2h-2.9
	L25.9,27.6z M4.9,27.6h19.4l-0.8,2H4.1L4.9,27.6z"/>
<path class="st5" d="M37.2,6.8c-0.7,0.4-1.9,1.8-2.9,3.2c-0.4,0.6-0.7,0.9-1.3,1c-1.3,0.3-3.7,0.2-5.4,0.4c-2.5,0.3-10.6,2-12.2,1.2
	c0.5-0.1,0.9-0.1,1-0.2c2.1-1.6,3.8-2.8,5.2-3.5C25.2,7.1,33.3,6.8,37.2,6.8 M22.6,20.4c-0.9-0.6-1.1-0.7-1.1-0.7
	c1.7-0.2,2.8-0.3,3.2-0.3c1.1,0,1.2,2.3,0.5,2.4c-0.8,0-1.3,0.1-1.5,0.1C23.1,21.8,22.7,20.8,22.6,20.4z M50.7,10.5
	c-3.5-2.9-8-4.3-12.4-4.3c-4.6,0-11.9,0.5-15.3,1.6c-2,0.6-3.7,1.7-5.6,3.2c-1,0.8-1.3,1.1-2.7,1.4c-1.9,0.3-3.8,0.7-5.6,1.2
	c-0.4,0.1-0.8,0.3-1.2,0.6c1.5,0.6,4.4,0.6,8.8-0.1c6-1,9.6-1.5,10.9-1.3c0.3,0.1,0.4,0.3,0.3,0.5c-1.1,1-2.5,1.7-4.2,2.3
	c-0.3,0.1-0.6,0-1.1-0.1c-3.6-0.1-7.5,1.9-11.3,1.8c-2.1-0.1-3.3-0.7-4.8-0.6c-0.2-0.2-0.2-0.3-0.2-0.3c-1,0.8-1.3,2.5-1,5.1
	c0.1-1.3,0.4-2.1,0.7-2.7c0.3-0.5,0.7-0.6,1.3-0.5c2.9,0.4,6.6,0.2,11-0.6c0.5-0.1,0.8,0,1.1,0.2c1.4,2.4,2.5,3.9,3.3,4.5
	c0.3,0.2,0.8,0.3,1.2,0.3c2.2-0.1,3.2-0.3,3.2-0.3c0.3,0,0.5-0.2,0.5-0.4c1-4.6,2.6-6.7,4.9-6.5c2.4,0.6,3.5,2.9,3.5,7.1
	c0.3-4.7-1.4-8.2-3.9-8.2c-0.9,0-2.1,0.4-3.1,2c1-1.9,2.6-2.8,4.7-2.1c0.4-0.4,1.2-0.7,1.8-0.7c-0.1-0.3-0.2-0.5-0.3-0.6
	c0.3,0.1,0.5,0.2,0.6,0.5c0,0.1,0.2,0.7,0.5,4.4l0-4.2l6.6-0.2c0.8-0.7,1.2-1.1,1.2-1.1c-6.1,0.2-9.1,0.3-9.1,0.3
	c-0.3-0.1-0.4-0.3-0.3-0.7c1.4-3.1,2.7-4.7,4.1-4.9C42.9,6.4,47.8,8.8,50.7,10.5z"/>
<path class="st5" d="M8.9,14.9c-0.1,0.4-0.1,0.9-0.1,1.5c-0.6-0.1-1.1-0.2-1.5-0.3c0,0,0-0.1,0-0.4c0,0-0.2,0.1-0.7,0.2
	c0.4-0.7,0.8-1.2,1.1-1.5C8,14.6,8.4,14.8,8.9,14.9"/>
<path class="st5" d="M22.9,15c0.2,0.1,0.5,0.2,0.7,0.1c0.3-0.6,0.8-1.1,1.4-1.5c0,0-0.3,0.5-0.9,1.4c1.4-0.5,2.5-1.1,3.3-1.7
	c0-0.1-0.1-0.1-0.3-0.1c-2.4,0.2-5.1,0.5-7.1,1c-0.5,0.1-1.1,0.8-1.4,1.4C20.6,15.1,22.2,15,22.9,15"/>
<path class="st5" d="M18.1,14.9c-0.2,0.2-0.3,0.4-0.3,0.4c-3.3,0.7-6.1,0.9-8.5,0.6c0,0-0.1-0.1-0.2-0.3
	C11.5,16,14.5,15.8,18.1,14.9"/>
<path class="st4" d="M48.4,10.1c0.7,0,1,0.1,1,0.1c-5.1-2.5-7.7-3-9.8-3c-1.8,0-2.6,1.4-3.6,2.9c1.4-2,2.5-2.6,4.9-2.3
	c0.4,0.7,0.8,1.9,1.2,4c-0.1-1.4-0.3-2.7-0.6-3.8C43.9,8.3,46,9,48.4,10.1"/>
<path class="st5" d="M37.6,10.9c-1.1,0.6-1.6,0.7-1.4,0.4c0.1-0.9,0.4-1.3,0.8-1.4c2.1-0.1,3.3,0.2,3.4,0.7c0.1,0.4,0.1,0.7-0.1,1.1
	c0-0.5-0.1-0.8-0.3-0.8C38.5,10.8,37.6,10.9,37.6,10.9"/>
<path class="st5" d="M21.5,22.9c0.5,0.3,0.7,0.5,0.3,0.5c-5.7,0.4-10.9,0.5-15.7,0.3c-0.4-0.1-0.3-0.3,0.3-0.7c0,0.2,0,0.2,0,0.2
	C10.5,23.4,15.5,23.3,21.5,22.9"/>
<path class="st4" d="M31.8,17.5c1.2,0,2.3,1.8,2.3,4.1c0,2.3-1,4.1-2.3,4.1c-1.2,0-2.3-1.8-2.3-4.1C29.6,19.3,30.6,17.5,31.8,17.5
	 M32,16.7c1.5,0,2.7,2.2,2.7,4.9c0,2.7-1.2,4.9-2.7,4.9c-1.5,0-2.7-2.2-2.7-4.9C29.3,18.9,30.5,16.7,32,16.7z"/>
<path class="st4" d="M18.3,19.9c0.3,0.2,0.9,0.6,1.5,1.4c-0.5-1-1.1-1.8-1.6-2.4c-0.1,0.4-0.2,0.6-0.4,0.9C15,20,11.5,20.1,7.4,20.1
	c-0.1,0-0.2-0.3-0.6-0.7c-0.3,0.7-0.4,1.5-0.4,2.4c0.3-1,0.5-1.5,0.5-1.5c0.3,0.2,0.4,0.3,0.4,0.3c5.1-0.1,8.9-0.1,10.8-0.3
	C18.2,20.2,18.3,20,18.3,19.9"/>
</svg>
